#!OML:ASF F:\VICON\USERDATA\INSTALL\rory3\rory3.ASF
:FULLY-SPECIFIED
:DEGREES
875
root 3.45669 16.5455 -0.199902 2.96894 -41.506 -4.50383
lowerback 9.35502 4.93316 -3.12161
upperback 1.2649 6.13453 -1.60915
thorax -4.05606 3.05873 -0.713113
lowerneck -13.9648 -2.97424 -11.3071
upperneck 25.5273 -3.81277 8.68577
head 10.9085 -1.86847 4.57117
rclavicle -6.30147e-014 2.38542e-015
rhumerus 29.9241 -1.93332 -75.3224
rradius 129.228
rwrist -12.797
rhand -10.2988 23.7739
rfingers 7.12502
rthumb 15.6959 -5.60952
lclavicle -6.30147e-014 2.38542e-015
lhumerus -7.54838 11.0756 75.1514
lradius 116.814
lwrist 1.41248
lhand -9.22699 6.82964
lfingers 7.12502
lthumb 16.7279 36.1289
rfemur -2.81422 -14.6262 18.3111
rtibia 59.7357
rfoot -11.0097 8.14976
rtoes -17.1499
lfemur -38.7169 -9.60259 -13.3449
ltibia 39.161
lfoot 2.02986 -22.0453
ltoes -5.19572
876
root 3.52081 16.5646 -0.256508 3.15079 -42.1099 -4.42762
lowerback 9.14698 4.92871 -2.99811
upperback 1.24099 6.15325 -1.57333
thorax -3.95688 3.06746 -0.728159
lowerneck -13.9784 -3.06611 -11.2223
upperneck 25.5294 -3.93478 8.5651
head 10.9231 -1.93037 4.49414
rclavicle 9.10434e-014 2.3059e-014
rhumerus 30.6721 -2.68437 -74.9889
rradius 129.766
rwrist -11.8837
rhand -11.8592 24.5075
rfingers 7.12502
rthumb 14.1926 -4.98768
lclavicle 9.10434e-014 2.3059e-014
lhumerus -8.85676 11.3018 75.3146
lradius 116.802
lwrist 1.79849
lhand -9.52462 6.24256
lfingers 7.12502
lthumb 16.4414 35.5658
rfemur -2.80981 -14.3234 18.6081
rtibia 58.9887
rfoot -13.5445 7.73864
rtoes -18.1936
lfemur -38.755 -9.14611 -13.2957
ltibia 38.4026
lfoot 1.99028 -21.6354
ltoes -7.34776
877
root 3.58742 16.5729 -0.315409 3.29212 -42.6497 -4.40385
lowerback 9.08005 4.90699 -2.82402
upperback 1.21559 6.1467 -1.53794
thorax -3.93174 3.06275 -0.781191
lowerneck -13.9543 -3.09848 -11.0774
upperneck 25.5218 -4.01146 8.51648
head 10.92 -1.95839 4.43976
rclavicle -4.21423e-014 1.90833e-014
rhumerus 31.3323 -3.48892 -74.6703
rradius 130.437
rwrist -11.5185
rhand -12.0938 24.4803
rfingers 7.12502
rthumb 13.9666 -5.03053
lclavicle -4.21423e-014 1.90833e-014
lhumerus -10.2183 11.5615 75.4433
lradius 116.887
lwrist 2.31399
lhand -9.4284 6.18369
lfingers 7.12502
lthumb 16.534 35.4993
rfemur -2.70364 -14.1317 18.9854
rtibia 58.0602
rfoot -16.0173 7.10521
rtoes -18.7722
lfemur -38.716 -8.68939 -13.207
ltibia 37.6559
lfoot 2.00814 -21.168
ltoes -8.84391
878
root 3.65686 16.5773 -0.375768 3.41867 -43.0944 -4.4503
lowerback 9.08872 4.82536 -2.55276
upperback 1.21489 6.06638 -1.51844
thorax -3.91027 3.01969 -0.899692
lowerneck -13.7177 -3.12157 -10.9403
upperneck 25.293 -4.11123 8.56869
head 10.7967 -1.98781 4.41468
rclavicle 3.89618e-014 7.95139e-016
rhumerus 31.9067 -4.22537 -74.4152
rradius 131.056
rwrist -11.1399
rhand -11.7653 24.3706
rfingers 7.12502
rthumb 14.2831 -5.11817
lclavicle 3.89618e-014 7.95139e-016
lhumerus -11.6042 11.8435 75.5779
lradius 116.619
lwrist 1.6264
lhand -9.74649 5.34379
lfingers 7.12502
lthumb 16.2278 34.6846
rfemur -2.42912 -13.9171 19.4408
rtibia 56.9483
rfoot -18.3183 6.37691
rtoes -18.3197
lfemur -38.6356 -8.24989 -13.1108
ltibia 36.9652
lfoot 1.67165 -20.8192
ltoes -11.7918
879
root 3.72527 16.5875 -0.436913 3.54904 -43.5205 -4.416
lowerback 9.02524 4.76478 -2.36534
upperback 1.21667 6.00871 -1.4954
thorax -3.85594 2.98918 -0.965134
lowerneck -13.4934 -3.21071 -10.8861
upperneck 25.0378 -4.28845 8.6547
head 10.6788 -2.05646 4.40554
rclavicle 6.77856e-014 -1.59028e-015
rhumerus 32.3787 -4.91786 -74.1308
rradius 131.639
rwrist -10.9372
rhand -11.5392 24.7259
rfingers 7.12502
rthumb 14.501 -4.74735
lclavicle 6.77856e-014 -1.59028e-015
lhumerus -12.9982 12.27 75.8748
lradius 117.153
lwrist 2.63494
lhand -8.38462 7.27042
lfingers 7.12502
lthumb 17.5387 36.4993
rfemur -2.11602 -13.7906 19.8199
rtibia 55.7071
rfoot -20.5228 5.44601
rtoes -19.0206
lfemur -38.6377 -7.76958 -13.101
ltibia 36.3085
lfoot 0.921604 -20.6223
ltoes -16.0696
880
root 3.79132 16.5949 -0.498938 3.72651 -43.9917 -4.40889
lowerback 8.94535 4.77795 -2.19462
upperback 1.21134 6.04599 -1.50309
thorax -3.79886 3.00578 -1.06397
lowerneck -13.2967 -3.33219 -10.7648
upperneck 24.8036 -4.55633 8.85453
head 10.5857 -2.148 4.4158
rclavicle -4.45278e-014 -3.4191e-014
rhumerus 32.6119 -5.73218 -73.8309
rradius 132.233
rwrist -10.9073
rhand -11.4821 25.0449
rfingers 7.12502
rthumb 14.5561 -4.42438
lclavicle -4.45278e-014 -3.4191e-014
lhumerus -14.2891 12.5945 76.2734
lradius 117.239
lwrist 2.81951
lhand -8.07796 7.4104
lfingers 7.12502
lthumb 17.8338 36.6127
rfemur -1.79668 -13.7903 20.1942
rtibia 54.3602
rfoot -22.7355 4.4419
rtoes -20.6004
lfemur -38.6843 -7.32419 -13.0047
ltibia 35.6779
lfoot 0.237062 -20.3232
ltoes -19.1163
881
root 3.85731 16.5973 -0.560668 3.8707 -44.4464 -4.39576
lowerback 8.86872 4.78483 -2.05517
upperback 1.23 6.07135 -1.51529
thorax -3.72118 3.01674 -1.14763
lowerneck -13.1072 -3.45412 -10.5651
upperneck 24.6046 -4.8437 9.05205
head 10.5075 -2.24296 4.41019
rclavicle 1.58431e-013 4.77083e-015
rhumerus 32.7088 -6.58052 -73.5294
rradius 132.781
rwrist -10.9921
rhand -11.2877 25.0516
rfingers 7.12502
rthumb 14.7433 -4.40408
lclavicle 1.58431e-013 4.77083e-015
lhumerus -15.5042 12.9034 76.653
lradius 117.266
lwrist 2.91066
lhand -8.06589 7.36911
lfingers 7.12502
lthumb 17.8454 36.5703
rfemur -1.46503 -13.7076 20.5554
rtibia 52.9715
rfoot -24.8456 3.90873
rtoes -19.9265
lfemur -38.7028 -6.99781 -12.8585
ltibia 35.0552
lfoot -0.00655997 -19.6962
ltoes -19.8608
